<?xml version="1.0" encoding="UTF-8" standalone="no"?>

<svg
    width="511.99997"
    height="511.99997"
    viewBox="0 0 135.46666 135.46666"
    xmlns="http://www.w3.org/2000/svg"
    xmlns:svg="http://www.w3.org/2000/svg">
    <path
        style="fill:#64a296;"
        d="M 20.108331,17.462498 H 35.98333 c 1.465792,0 2.645834,1.180041 2.645834,2.645833 V 35.98333 c 0,1.465792 -1.180042,2.645834 -2.645834,2.645834 H 20.108331 c -1.465792,0 -2.645833,-1.180042 -2.645833,-2.645834 V 20.108331 c 0,-1.465792 1.180041,-2.645833 2.645833,-2.645833 z" />
    <path
        style="opacity:0.9;fill:#64a296;"
        d="M 20.108331,43.920831 H 35.98333 c 1.465792,0 2.645834,1.180041 2.645834,2.645833 v 15.874999 c 0,1.465792 -1.180042,2.645834 -2.645834,2.645834 H 20.108331 c -1.465792,0 -2.645833,-1.180042 -2.645833,-2.645834 V 46.566664 c 0,-1.465792 1.180041,-2.645833 2.645833,-2.645833 z" />
    <path
        style="opacity:0.8;fill:#64a296;"
        d="M 20.108331,70.379163 H 35.98333 c 1.465792,0 2.645834,1.180041 2.645834,2.645833 v 15.874999 c 0,1.465792 -1.180042,2.645834 -2.645834,2.645834 H 20.108331 c -1.465792,0 -2.645833,-1.180042 -2.645833,-2.645834 V 73.024996 c 0,-1.465792 1.180041,-2.645833 2.645833,-2.645833 z" />
    <path
        style="opacity:0.7;fill:#64a296;"
        d="M 20.108331,96.837496 H 35.98333 c 1.465792,0 2.645834,1.180041 2.645834,2.645833 v 15.875001 c 0,1.46579 -1.180042,2.64583 -2.645834,2.64583 H 20.108331 c -1.465792,0 -2.645833,-1.18004 -2.645833,-2.64583 V 99.483329 c 0,-1.465792 1.180041,-2.645833 2.645833,-2.645833 z" />
    <path
        style="opacity:0.9;fill:#64a296;"
        d="m 46.566664,17.462498 h 15.874999 c 1.465792,0 2.645834,1.180041 2.645834,2.645833 V 35.98333 c 0,1.465792 -1.180042,2.645834 -2.645834,2.645834 H 46.566664 c -1.465792,0 -2.645833,-1.180042 -2.645833,-2.645834 V 20.108331 c 0,-1.465792 1.180041,-2.645833 2.645833,-2.645833 z" />
    <path
        style="opacity:0.8;fill:#64a296;"
        d="m 46.566664,43.920831 h 15.874999 c 1.465792,0 2.645834,1.180041 2.645834,2.645833 v 15.874999 c 0,1.465792 -1.180042,2.645834 -2.645834,2.645834 H 46.566664 c -1.465792,0 -2.645833,-1.180042 -2.645833,-2.645834 V 46.566664 c 0,-1.465792 1.180041,-2.645833 2.645833,-2.645833 z" />
    <path
        style="opacity:0.7;fill:#64a296;"
        d="m 46.566664,70.379163 h 15.874999 c 1.465792,0 2.645834,1.180041 2.645834,2.645833 v 15.874999 c 0,1.465792 -1.180042,2.645834 -2.645834,2.645834 H 46.566664 c -1.465792,0 -2.645833,-1.180042 -2.645833,-2.645834 V 73.024996 c 0,-1.465792 1.180041,-2.645833 2.645833,-2.645833 z" />
    <path
        style="opacity:0.6;fill:#64a296;"
        d="m 46.566664,96.837496 h 15.874999 c 1.465792,0 2.645834,1.180041 2.645834,2.645833 v 15.875001 c 0,1.46579 -1.180042,2.64583 -2.645834,2.64583 H 46.566664 c -1.465792,0 -2.645833,-1.18004 -2.645833,-2.64583 V 99.483329 c 0,-1.465792 1.180041,-2.645833 2.645833,-2.645833 z" />
    <path
        style="opacity:0.8;fill:#64a296;"
        d="m 73.024996,17.462498 h 15.874999 c 1.465792,0 2.645834,1.180041 2.645834,2.645833 V 35.98333 c 0,1.465792 -1.180042,2.645834 -2.645834,2.645834 H 73.024996 c -1.465792,0 -2.645833,-1.180042 -2.645833,-2.645834 V 20.108331 c 0,-1.465792 1.180041,-2.645833 2.645833,-2.645833 z" />
    <path
        style="opacity:0.7;fill:#64a296;"
        d="m 73.024996,43.920831 h 15.874999 c 1.465792,0 2.645834,1.180041 2.645834,2.645833 v 15.874999 c 0,1.465792 -1.180042,2.645834 -2.645834,2.645834 H 73.024996 c -1.465792,0 -2.645833,-1.180042 -2.645833,-2.645834 V 46.566664 c 0,-1.465792 1.180041,-2.645833 2.645833,-2.645833 z" />
    <path
        style="opacity:0.6;fill:#64a296;"
        d="m 73.024996,70.379163 h 15.874999 c 1.465792,0 2.645834,1.180041 2.645834,2.645833 v 15.874999 c 0,1.465792 -1.180042,2.645834 -2.645834,2.645834 H 73.024996 c -1.465792,0 -2.645833,-1.180042 -2.645833,-2.645834 V 73.024996 c 0,-1.465792 1.180041,-2.645833 2.645833,-2.645833 z" />
    <path
        style="opacity:0.5;fill:#64a296;"
        d="m 73.024996,96.837496 h 15.874999 c 1.465792,0 2.645834,1.180041 2.645834,2.645833 v 15.875001 c 0,1.46579 -1.180042,2.64583 -2.645834,2.64583 H 73.024996 c -1.465792,0 -2.645833,-1.18004 -2.645833,-2.64583 V 99.483329 c 0,-1.465792 1.180041,-2.645833 2.645833,-2.645833 z" />
    <path
        style="opacity:0.7;fill:#64a296;"
        d="m 99.483329,17.462498 h 15.875001 c 1.46579,0 2.64583,1.180041 2.64583,2.645833 V 35.98333 c 0,1.465792 -1.18004,2.645834 -2.64583,2.645834 H 99.483329 c -1.465792,0 -2.645833,-1.180042 -2.645833,-2.645834 V 20.108331 c 0,-1.465792 1.180041,-2.645833 2.645833,-2.645833 z" />
    <path
        style="opacity:0.6;fill:#64a296;"
        d="m 99.483329,43.920831 h 15.875001 c 1.46579,0 2.64583,1.180041 2.64583,2.645833 v 15.874999 c 0,1.465792 -1.18004,2.645834 -2.64583,2.645834 H 99.483329 c -1.465792,0 -2.645833,-1.180042 -2.645833,-2.645834 V 46.566664 c 0,-1.465792 1.180041,-2.645833 2.645833,-2.645833 z" />
    <path
        style="opacity:0.5;fill:#64a296;"
        d="m 99.483329,70.379163 h 15.875001 c 1.46579,0 2.64583,1.180041 2.64583,2.645833 v 15.874999 c 0,1.465792 -1.18004,2.645834 -2.64583,2.645834 H 99.483329 c -1.465792,0 -2.645833,-1.180042 -2.645833,-2.645834 V 73.024996 c 0,-1.465792 1.180041,-2.645833 2.645833,-2.645833 z" />
    <path
        style="opacity:0.4;fill:#64a296;"
        d="m 99.483329,96.837496 h 15.875001 c 1.46579,0 2.64583,1.180041 2.64583,2.645833 v 15.875001 c 0,1.46579 -1.18004,2.64583 -2.64583,2.64583 H 99.483329 c -1.465792,0 -2.645833,-1.18004 -2.645833,-2.64583 V 99.483329 c 0,-1.465792 1.180041,-2.645833 2.645833,-2.645833 z" />
</svg>
